<svg width="40" height="40" viewBox="0 0 40 40" fill="none" xmlns="http://www.w3.org/2000/svg">
<path d="M20 40C31.0457 40 40 31.0457 40 20C40 8.9543 31.0457 0 20 0C8.9543 0 0 8.9543 0 20C0 31.0457 8.9543 40 20 40Z" fill="black"/>
<path d="M20 40C31.0457 40 40 31.0457 40 20C40 8.9543 31.0457 0 20 0C8.9543 0 0 8.9543 0 20C0 31.0457 8.9543 40 20 40Z" fill="black"/>
<path d="M25.4515 19.7979H21.8828V32.8721H16.4758V19.7979H13.9042V15.203H16.4758V12.2297C16.4758 10.1034 17.4858 6.77386 21.9309 6.77386L25.936 6.79062V11.2507H23.0301C22.5534 11.2507 21.8831 11.4888 21.8831 12.5031V15.2073H25.9239L25.4515 19.7979Z" fill="white"/>
</svg>
