<svg width="40" height="40" viewBox="0 0 40 40" fill="none" xmlns="http://www.w3.org/2000/svg">
<path d="M20 40C31.0457 40 40 31.0457 40 20C40 8.95431 31.0457 0 20 0C8.95431 0 0 8.95431 0 20C0 31.0457 8.95431 40 20 40Z" fill="black"/>
<path d="M20 33C27.1797 33 33 26.9558 33 19.5C33 12.0442 27.1797 6 20 6C12.8203 6 7 12.0442 7 19.5C7 26.9558 12.8203 33 20 33Z" fill="white"/>
<path d="M20 3C11.7125 3 5 9.7125 5 18C5 24.6375 9.29375 30.2438 15.2562 32.2313C16.0062 32.3625 16.2875 31.9125 16.2875 31.5188C16.2875 31.1625 16.2688 29.9813 16.2688 28.725C12.5 29.4188 11.525 27.8063 11.225 26.9625C11.0563 26.5313 10.325 25.2 9.6875 24.8438C9.1625 24.5625 8.4125 23.8688 9.66875 23.85C10.85 23.8313 11.6937 24.9375 11.975 25.3875C13.325 27.6563 15.4813 27.0188 16.3438 26.625C16.475 25.65 16.8687 24.9938 17.3 24.6188C13.9625 24.2438 10.475 22.95 10.475 17.2125C10.475 15.5813 11.0563 14.2313 12.0125 13.1813C11.8625 12.8063 11.3375 11.2688 12.1625 9.20625C12.1625 9.20625 13.4187 8.8125 16.2875 10.7438C17.4875 10.4063 18.7625 10.2375 20.0375 10.2375C21.3125 10.2375 22.5875 10.4063 23.7875 10.7438C26.6562 8.79375 27.9125 9.20625 27.9125 9.20625C28.7375 11.2688 28.2125 12.8063 28.0625 13.1813C29.0188 14.2313 29.6 15.5625 29.6 17.2125C29.6 22.9688 26.0938 24.2438 22.7563 24.6188C23.3 25.0875 23.7688 25.9875 23.7688 27.3938C23.7688 29.4 23.75 31.0125 23.75 31.5188C23.75 31.9125 24.0312 32.3813 24.7812 32.2313C27.7592 31.2262 30.3469 29.3125 32.18 26.7595C34.0132 24.2066 34.9995 21.143 35 18C35 9.7125 28.2875 3 20 3Z" fill="black"/>
</svg>
