<svg width="40" height="40" viewBox="0 0 40 40" fill="none" xmlns="http://www.w3.org/2000/svg">
<path d="M20 40C31.0457 40 40 31.0457 40 20C40 8.95431 31.0457 0 20 0C8.95431 0 0 8.95431 0 20C0 31.0457 8.95431 40 20 40Z" fill="white"/>
<path d="M31.9498 21.6093V29.8549H27.1692V22.1619C27.1692 20.2303 26.479 18.9112 24.7481 18.9112C23.4272 18.9112 22.6425 19.7993 22.296 20.6592C22.1701 20.9665 22.1377 21.3933 22.1377 21.8243V29.8545H17.3568C17.3568 29.8545 17.4209 16.8252 17.3568 15.4765H22.138V17.514C22.1284 17.53 22.1149 17.5457 22.1063 17.561H22.138V17.514C22.7734 16.5364 23.9064 15.1389 26.4466 15.1389C29.5918 15.1389 31.9498 17.1938 31.9498 21.6093ZM12.3555 8.54575C10.7202 8.54575 9.65025 9.61922 9.65025 11.0296C9.65025 12.4101 10.6891 13.5145 12.2928 13.5145H12.3238C13.9912 13.5145 15.028 12.4101 15.028 11.0296C14.9963 9.61922 13.9912 8.54575 12.3555 8.54575ZM9.9344 29.8549H14.7135V15.4765H9.9344V29.8549Z" fill="#637381"/>
</svg>
