<svg width="40" height="40" viewBox="0 0 40 40" fill="none" xmlns="http://www.w3.org/2000/svg">
<path d="M20 40C31.0457 40 40 31.0457 40 20C40 8.95431 31.0457 0 20 0C8.95431 0 0 8.95431 0 20C0 31.0457 8.95431 40 20 40Z" fill="white"/>
<g clip-path="url(#clip0_519_323)">
<path d="M19.5 31C19.5 31 28.125 22.8264 28.125 16.625C28.125 14.3375 27.2163 12.1437 25.5988 10.5262C23.9813 8.9087 21.7875 8 19.5 8C17.2125 8 15.0187 8.9087 13.4012 10.5262C11.7837 12.1437 10.875 14.3375 10.875 16.625C10.875 22.8264 19.5 31 19.5 31ZM19.5 20.9375C18.3563 20.9375 17.2594 20.4831 16.4506 19.6744C15.6419 18.8656 15.1875 17.7687 15.1875 16.625C15.1875 15.4813 15.6419 14.3844 16.4506 13.5756C17.2594 12.7669 18.3563 12.3125 19.5 12.3125C20.6437 12.3125 21.7406 12.7669 22.5494 13.5756C23.3581 14.3844 23.8125 15.4813 23.8125 16.625C23.8125 17.7687 23.3581 18.8656 22.5494 19.6744C21.7406 20.4831 20.6437 20.9375 19.5 20.9375Z" fill="#637381"/>
</g>
<defs>
<clipPath id="clip0_519_323">
<rect width="23" height="23" fill="white" transform="translate(8 8)"/>
</clipPath>
</defs>
</svg>
