<svg width="40" height="40" viewBox="0 0 40 40" fill="none" xmlns="http://www.w3.org/2000/svg">
<path d="M20 40C31.0457 40 40 31.0457 40 20C40 8.95431 31.0457 0 20 0C8.95431 0 0 8.95431 0 20C0 31.0457 8.95431 40 20 40Z" fill="white"/>
<path d="M20.005 0H19.995C8.9675 0 0 8.97 0 20C0 24.375 1.41 28.43 3.8075 31.7225L1.315 39.1525L9.0025 36.695C12.165 38.79 15.9375 40 20.005 40C31.0325 40 40 31.0275 40 20C40 8.9725 31.0325 0 20.005 0ZM31.6425 28.2425C31.16 29.605 29.245 30.735 27.7175 31.065C26.6725 31.2875 25.3075 31.465 20.7125 29.56C14.835 27.125 11.05 21.1525 10.755 20.765C10.4725 20.3775 8.38 17.6025 8.38 14.7325C8.38 11.8625 9.8375 10.465 10.425 9.865C10.9075 9.3725 11.705 9.1475 12.47 9.1475C12.7175 9.1475 12.94 9.16 13.14 9.17C13.7275 9.195 14.0225 9.23 14.41 10.1575C14.8925 11.32 16.0675 14.19 16.2075 14.485C16.35 14.78 16.4925 15.18 16.2925 15.5675C16.105 15.9675 15.94 16.145 15.645 16.485C15.35 16.825 15.07 17.085 14.775 17.45C14.505 17.7675 14.2 18.1075 14.54 18.695C14.88 19.27 16.055 21.1875 17.785 22.7275C20.0175 24.715 21.8275 25.35 22.475 25.62C22.9575 25.82 23.5325 25.7725 23.885 25.3975C24.3325 24.915 24.885 24.115 25.4475 23.3275C25.8475 22.7625 26.3525 22.6925 26.8825 22.8925C27.4225 23.08 30.28 24.4925 30.8675 24.785C31.455 25.08 31.8425 25.22 31.985 25.4675C32.125 25.715 32.125 26.8775 31.6425 28.2425Z" fill="white"/>
<path d="M9.06875 13.6659C9.20737 13.0861 9.54815 12.5684 10.0353 12.1977C10.5224 11.8269 11.127 11.625 11.75 11.625H28.25C28.873 11.625 29.4776 11.8269 29.9647 12.1977C30.4518 12.5684 30.7926 13.0861 30.9312 13.6659L20 20.0434L9.06875 13.6659ZM9 15.1648V24.4888L16.9791 19.8189L9 15.1648ZM18.2964 20.5894L9.26262 25.8748C9.48582 26.3241 9.8381 26.7036 10.2784 26.9691C10.7188 27.2347 11.2291 27.3755 11.75 27.375H28.25C28.7708 27.3751 29.2809 27.2341 29.721 26.9682C30.1611 26.7024 30.5131 26.3228 30.736 25.8735L21.7022 20.5881L20 21.5816L18.2964 20.5881V20.5894ZM23.0209 19.8203L31 24.4888V15.1648L23.0209 19.8189V19.8203Z" fill="black"/>
</svg>
