<svg width="40" height="40" viewBox="0 0 40 40" fill="none" xmlns="http://www.w3.org/2000/svg">
<path d="M20 40C31.0457 40 40 31.0457 40 20C40 8.95431 31.0457 0 20 0C8.95431 0 0 8.95431 0 20C0 31.0457 8.95431 40 20 40Z" fill="white"/>
<path d="M20 8C13.3726 8 8 13.3726 8 20C8 26.6274 13.3726 32 20 32C26.6274 32 32 26.6274 32 20C32 13.3726 26.6274 8 20 8ZM9.53801 20.75H12.1115C12.1688 21.9952 12.3569 23.1345 12.6492 24.1576H10.3624C9.90447 23.1004 9.62358 21.9522 9.53801 20.75ZM23.7019 19.25C23.6455 18.0445 23.5025 16.9026 23.3091 15.8424H25.7674C26.0947 16.8487 26.3193 17.9833 26.387 19.25H23.7019ZM18.1084 24.1576C17.8967 22.9888 17.7928 21.848 17.7736 20.75H22.2265C22.2073 21.848 22.1033 22.9888 21.8916 24.1576H18.1084ZM21.5648 25.6576C21.2131 27.0077 20.7041 28.3838 19.9999 29.763C19.2957 28.3838 18.7868 27.0077 18.4352 25.6576H21.5648ZM17.794 19.25C17.8534 18.0376 18.0067 16.8951 18.2103 15.8424H21.7897C21.9933 16.8951 22.1466 18.0376 22.206 19.25H17.794ZM18.5474 14.3425C19.0161 12.5126 19.5952 11.0689 19.9999 10.18C20.4046 11.0689 20.9838 12.5126 21.4526 14.3425H18.5474ZM22.9912 14.3425C22.5127 12.3594 21.8982 10.7665 21.4421 9.73691C22.0089 10.1403 23.8922 11.6311 25.1768 14.3425H22.9912ZM18.5577 9.73682C18.1016 10.7664 17.4872 12.3594 17.0088 14.3425H14.8229C16.1077 11.6309 17.9911 10.14 18.5577 9.73682ZM16.6909 15.8425C16.4975 16.9026 16.3546 18.0445 16.2982 19.2501H13.6127C13.6805 17.9834 13.905 16.8487 14.2323 15.8425H16.6909ZM12.1131 19.25H9.53801C9.62358 18.0478 9.90442 16.8998 10.3623 15.8424H12.6596C12.3652 16.8654 12.1733 18.0039 12.1131 19.25ZM13.6119 20.75H16.2776C16.2946 21.8498 16.3872 22.9892 16.5833 24.1576H14.2331C13.9031 23.1488 13.6777 22.0138 13.6119 20.75ZM16.8939 25.6576C17.2618 27.185 17.8084 28.746 18.5957 30.3133C18.0644 29.9329 16.1331 28.4138 14.8236 25.6576H16.8939ZM21.4025 30.3167C22.1908 28.7482 22.7378 27.1861 23.1061 25.6576H25.1914C23.8858 28.4278 21.9463 29.9344 21.4025 30.3167ZM23.4168 24.1576C23.6129 22.9892 23.7055 21.8498 23.7224 20.75H26.3886C26.3241 22.0161 26.1024 23.1508 25.7772 24.1576H23.4168ZM27.8882 20.75H30.462C30.3764 21.9522 30.0955 23.1003 29.6376 24.1576H27.3506C27.6428 23.1345 27.831 21.9952 27.8882 20.75ZM27.8866 19.25C27.8265 18.0038 27.6346 16.8654 27.3402 15.8424H29.6377C30.0957 16.8997 30.3765 18.0478 30.462 19.25H27.8866ZM28.8315 14.3425H26.8114C26.141 12.7274 25.2669 11.4498 24.4443 10.5007C26.2437 11.3461 27.7641 12.6823 28.8315 14.3425ZM15.5552 10.5009C14.7327 11.45 13.8587 12.7276 13.1883 14.3425H11.1685C12.2358 12.6824 13.7561 11.3463 15.5552 10.5009ZM11.1686 25.6576H13.1761C13.8365 27.2562 14.6982 28.5295 15.515 29.4797C13.7335 28.6332 12.2278 27.3052 11.1686 25.6576ZM24.4854 29.4795C25.3019 28.5294 26.1635 27.2561 26.8237 25.6576H28.8314C27.7723 27.3051 26.2667 28.633 24.4854 29.4795Z" fill="#637381"/>
</svg>
